<?xml version="1.0" ?><svg enable-background="new 0 0 515.91 728.5" height="512" id="Layer_1" version="1.1" viewBox="0 0 512.00003 512" width="512" xml:space="preserve" xmlns="http://www.w3.org/2000/svg" xmlns:cc="http://creativecommons.org/ns#" xmlns:dc="http://purl.org/dc/elements/1.1/" xmlns:inkscape="http://www.inkscape.org/namespaces/inkscape" xmlns:rdf="http://www.w3.org/1999/02/22-rdf-syntax-ns#" xmlns:sodipodi="http://sodipodi.sourceforge.net/DTD/sodipodi-0.dtd" xmlns:svg="http://www.w3.org/2000/svg"><defs id="defs7"/><path d="m 256.01567,16.00227 c -101.75001,0 -184.281316,82.467005 -184.281316,184.18801 1.491,123.105 113.468716,190.80001 180.593716,293.25001 2.405,3.485 5.0988,3.334 7.3438,0 66.881,-102.609 179.10171,-170.14501 180.59381,-293.25001 0,-101.721005 -82.5011,-184.18801 -184.25001,-184.18801 z m -12.0938,73.750004 c 1.8691,0.06 3.2812,1.898 3.2812,4.625001 4.1944,34.176995 130.13661,49.752995 71,121.063005 5.1491,-34.26101 -20.8041,-46.91301 -48.25,-67.18801 0.018,48.03401 0.049,100.97401 0.031,113.68801 -0.059,51.914 -76.6043,63.523 -90.1875,25.031 -10.27491,-29.108 25.9919,-60.025 60.7812,-53.157 l 0,-139.718005 c 0.2122,-2.132001 0.7909,-3.760001 3.3438,-4.344001 z" id="path16653" style="font-size:medium;font-style:normal;font-variant:normal;font-weight:normal;font-stretch:normal;text-indent:0;text-align:start;text-decoration:none;line-height:normal;letter-spacing:normal;word-spacing:normal;text-transform:none;direction:ltr;block-progression:tb;writing-mode:lr-tb;text-anchor:start;baseline-shift:baseline;color:#000000;fill:#02B2F1;fill-opacity:0.8;fill-rule:nonzero;stroke:none;stroke-width:8;marker:none;visibility:visible;display:inline;overflow:visible;enable-background:accumulate;font-family:Sans;-inkscape-font-specification:Sans"/></svg>